<svg xmlns="http://www.w3.org/2000/svg" width="1007" height="584.538" viewBox="0 0 1007 584.538"><path d="M-1799.977-130.148a187.431,187.431,0,0,1-34.8-10.579,186.054,186.054,0,0,1-31.506-16.734,185.83,185.83,0,0,1-27.445-22.166,183.457,183.457,0,0,1-22.645-26.865,180.476,180.476,0,0,1-17.1-30.834,177.487,177.487,0,0,1-7.537-20.953H-1990v-64.83h110.387v15.127h.006c-.006.325-.006.678-.006,1.08a112.859,112.859,0,0,0,9.279,45,115.2,115.2,0,0,0,25.313,36.745,117.946,117.946,0,0,0,37.547,24.779,119.674,119.674,0,0,0,45.98,9.084,119.652,119.652,0,0,0,45.975-9.084,117.8,117.8,0,0,0,37.541-24.779,115.025,115.025,0,0,0,25.32-36.745,112.9,112.9,0,0,0,9.279-45c0-.36,0-.721-.01-1.08l.01-403.017h242.854v470.608L-1063.857-711H-983l-417.344,583.379-.182-.124v.2h-66.23v-518.63h-110.391V-306.9a178.916,178.916,0,0,1-3.766,35.5,178.061,178.061,0,0,1-10.809,34.074,180.2,180.2,0,0,1-17.1,30.834,183.321,183.321,0,0,1-22.641,26.865,185.978,185.978,0,0,1-27.449,22.166,186.465,186.465,0,0,1-31.5,16.734,187.373,187.373,0,0,1-34.812,10.579,190.814,190.814,0,0,1-37.375,3.687A190.863,190.863,0,0,1-1799.977-130.148Z" transform="translate(1989.998 711)" fill="#f73859"/></svg>